<svg width="200" height="60" viewBox="0 0 200 60" fill="none" xmlns="http://www.w3.org/2000/svg">
<rect x="0.5" y="0.5" width="199" height="59" rx="7.5" fill="white"/>
<rect x="0.5" y="0.5" width="199" height="59" rx="7.5" stroke="#00C680"/>
<path fill-rule="evenodd" clip-rule="evenodd" d="M185.932 46.5728C186.135 47.1235 185.6 47.6594 185.049 47.4559L175.214 43.8189L182.298 36.7292L185.932 46.5728Z" fill="#CCCCCC"/>
<path fill-rule="evenodd" clip-rule="evenodd" d="M167.233 46.9113C176.737 46.9113 184.442 39.2283 184.442 29.7509C184.442 20.2735 176.737 12.5906 167.233 12.5906C157.729 12.5906 150.024 20.2735 150.024 29.7509C150.024 39.2283 157.729 46.9113 167.233 46.9113Z" fill="white" stroke="#CCCCCC"/>
<path fill-rule="evenodd" clip-rule="evenodd" d="M167.233 41.1912C173.569 41.1912 178.706 36.0692 178.706 29.7509C178.706 23.4327 173.569 18.3107 167.233 18.3107C160.897 18.3107 155.76 23.4327 155.76 29.7509C155.76 36.0692 160.897 41.1912 167.233 41.1912ZM170.61 35.1409C173.596 33.2808 174.503 29.3597 172.638 26.3829C170.773 23.4062 166.841 22.5009 163.855 24.361C160.87 26.2211 159.963 30.1422 161.828 33.119C163.693 36.0957 167.625 37.001 170.61 35.1409Z" fill="#33CC97"/>
<path d="M20.875 27.665C20.215 27.665 19.63 27.585 19.12 27.425C18.62 27.265 18.19 27.04 17.83 26.75C17.48 26.46 17.205 26.115 17.005 25.715C16.815 25.305 16.705 24.85 16.675 24.35H18.565C18.625 24.86 18.85 25.275 19.24 25.595C19.63 25.915 20.175 26.075 20.875 26.075C21.665 26.075 22.245 25.935 22.615 25.655C22.995 25.375 23.185 24.975 23.185 24.455C23.185 23.955 23.005 23.56 22.645 23.27C22.285 22.97 21.695 22.82 20.875 22.82H19.6V21.38H20.875C21.515 21.38 21.995 21.25 22.315 20.99C22.645 20.72 22.81 20.355 22.81 19.895C22.81 19.445 22.655 19.09 22.345 18.83C22.045 18.56 21.555 18.425 20.875 18.425C20.205 18.425 19.7 18.555 19.36 18.815C19.03 19.075 18.84 19.445 18.79 19.925H16.9C16.97 18.985 17.33 18.235 17.98 17.675C18.63 17.115 19.595 16.835 20.875 16.835C22.155 16.835 23.11 17.1 23.74 17.63C24.38 18.16 24.7 18.89 24.7 19.82C24.7 20.37 24.545 20.835 24.235 21.215C23.925 21.585 23.51 21.855 22.99 22.025C23.63 22.175 24.135 22.46 24.505 22.88C24.885 23.3 25.075 23.85 25.075 24.53C25.075 24.99 24.985 25.415 24.805 25.805C24.635 26.185 24.37 26.515 24.01 26.795C23.66 27.065 23.22 27.28 22.69 27.44C22.17 27.59 21.565 27.665 20.875 27.665ZM29.1309 27.665C28.7009 27.665 28.3159 27.605 27.9759 27.485C27.6459 27.355 27.3659 27.18 27.1359 26.96C26.9059 26.73 26.7309 26.465 26.6109 26.165C26.4909 25.865 26.4309 25.535 26.4309 25.175C26.4309 24.385 26.6659 23.8 27.1359 23.42C27.6059 23.03 28.2959 22.835 29.2059 22.835H31.6809V22.4C31.6809 21.8 31.5459 21.39 31.2759 21.17C31.0159 20.94 30.6009 20.825 30.0309 20.825C29.5209 20.825 29.1459 20.905 28.9059 21.065C28.6659 21.225 28.5259 21.445 28.4859 21.725H26.8809C26.9009 21.385 26.9859 21.075 27.1359 20.795C27.2959 20.505 27.5109 20.255 27.7809 20.045C28.0609 19.835 28.3959 19.675 28.7859 19.565C29.1759 19.445 29.6159 19.385 30.1059 19.385C30.5959 19.385 31.0359 19.44 31.4259 19.55C31.8259 19.66 32.1659 19.835 32.4459 20.075C32.7259 20.305 32.9409 20.605 33.0909 20.975C33.2509 21.345 33.3309 21.79 33.3309 22.31V25.475C33.3309 25.895 33.3359 26.265 33.3459 26.585C33.3559 26.895 33.3809 27.2 33.4209 27.5H31.9209C31.8909 27.27 31.8659 27.075 31.8459 26.915C31.8359 26.755 31.8309 26.555 31.8309 26.315C31.6409 26.685 31.3109 27.005 30.8409 27.275C30.3809 27.535 29.8109 27.665 29.1309 27.665ZM29.5809 26.225C29.8609 26.225 30.1259 26.19 30.3759 26.12C30.6359 26.04 30.8609 25.93 31.0509 25.79C31.2409 25.64 31.3909 25.46 31.5009 25.25C31.6209 25.03 31.6809 24.78 31.6809 24.5V24.065H29.5059C29.0859 24.065 28.7459 24.155 28.4859 24.335C28.2359 24.515 28.1109 24.78 28.1109 25.13C28.1109 25.46 28.2259 25.725 28.4559 25.925C28.6959 26.125 29.0709 26.225 29.5809 26.225ZM34.6105 26.09H35.5105C35.6105 25.94 35.7005 25.715 35.7805 25.415C35.8705 25.115 35.9455 24.775 36.0055 24.395C36.0655 24.005 36.1105 23.59 36.1405 23.15C36.1705 22.7 36.1855 22.25 36.1855 21.8V19.55H42.1105V26.09H43.1605V29.375H41.6305V27.5H36.1405V29.375H34.6105V26.09ZM40.4605 26.09V20.96H37.7755V22.1C37.7755 22.87 37.7305 23.61 37.6405 24.32C37.5505 25.02 37.4005 25.61 37.1905 26.09H40.4605ZM47.0605 27.665C46.6305 27.665 46.2455 27.605 45.9055 27.485C45.5755 27.355 45.2955 27.18 45.0655 26.96C44.8355 26.73 44.6605 26.465 44.5405 26.165C44.4205 25.865 44.3605 25.535 44.3605 25.175C44.3605 24.385 44.5955 23.8 45.0655 23.42C45.5355 23.03 46.2255 22.835 47.1355 22.835H49.6105V22.4C49.6105 21.8 49.4755 21.39 49.2055 21.17C48.9455 20.94 48.5305 20.825 47.9605 20.825C47.4505 20.825 47.0755 20.905 46.8355 21.065C46.5955 21.225 46.4555 21.445 46.4155 21.725H44.8105C44.8305 21.385 44.9155 21.075 45.0655 20.795C45.2255 20.505 45.4405 20.255 45.7105 20.045C45.9905 19.835 46.3255 19.675 46.7155 19.565C47.1055 19.445 47.5455 19.385 48.0355 19.385C48.5255 19.385 48.9655 19.44 49.3555 19.55C49.7555 19.66 50.0955 19.835 50.3755 20.075C50.6555 20.305 50.8705 20.605 51.0205 20.975C51.1805 21.345 51.2605 21.79 51.2605 22.31V25.475C51.2605 25.895 51.2655 26.265 51.2755 26.585C51.2855 26.895 51.3105 27.2 51.3505 27.5H49.8505C49.8205 27.27 49.7955 27.075 49.7755 26.915C49.7655 26.755 49.7605 26.555 49.7605 26.315C49.5705 26.685 49.2405 27.005 48.7705 27.275C48.3105 27.535 47.7405 27.665 47.0605 27.665ZM47.5105 26.225C47.7905 26.225 48.0555 26.19 48.3055 26.12C48.5655 26.04 48.7905 25.93 48.9805 25.79C49.1705 25.64 49.3205 25.46 49.4305 25.25C49.5505 25.03 49.6105 24.78 49.6105 24.5V24.065H47.4355C47.0155 24.065 46.6755 24.155 46.4155 24.335C46.1655 24.515 46.0405 24.78 46.0405 25.13C46.0405 25.46 46.1555 25.725 46.3855 25.925C46.6255 26.125 47.0005 26.225 47.5105 26.225ZM55.0188 20.96H52.3938V19.55H59.2938V20.96H56.6688V27.5H55.0188V20.96ZM60.7938 19.55H62.4438V22.34H64.2438C65.2638 22.34 66.0188 22.56 66.5088 23C66.9988 23.43 67.2438 24.07 67.2438 24.92C67.2438 25.72 67.0038 26.35 66.5238 26.81C66.0438 27.27 65.2838 27.5 64.2438 27.5H60.7938V19.55ZM64.0938 26.09C64.6438 26.09 65.0288 25.995 65.2488 25.805C65.4788 25.605 65.5938 25.31 65.5938 24.92C65.5938 24.53 65.4788 24.24 65.2488 24.05C65.0288 23.85 64.6438 23.75 64.0938 23.75H62.4438V26.09H64.0938ZM72.4943 19.55H76.2443C77.2443 19.55 77.9693 19.755 78.4193 20.165C78.8693 20.565 79.0943 21.08 79.0943 21.71C79.0943 22.06 78.9893 22.4 78.7793 22.73C78.5693 23.05 78.2743 23.265 77.8943 23.375C78.3843 23.495 78.7543 23.725 79.0043 24.065C79.2643 24.395 79.3943 24.785 79.3943 25.235C79.3943 25.925 79.1643 26.475 78.7043 26.885C78.2443 27.295 77.5243 27.5 76.5443 27.5H72.4943V19.55ZM76.3193 26.09C76.8593 26.09 77.2293 26.005 77.4293 25.835C77.6393 25.655 77.7443 25.405 77.7443 25.085C77.7443 24.765 77.6393 24.525 77.4293 24.365C77.2293 24.195 76.8593 24.11 76.3193 24.11H74.1443V26.09H76.3193ZM76.0943 22.82C76.5943 22.82 76.9443 22.74 77.1443 22.58C77.3443 22.41 77.4443 22.18 77.4443 21.89C77.4443 21.6 77.3443 21.375 77.1443 21.215C76.9443 21.045 76.5943 20.96 76.0943 20.96H74.1443V22.82H76.0943ZM84.499 27.665C83.949 27.665 83.434 27.58 82.954 27.41C82.484 27.23 82.074 26.97 81.724 26.63C81.374 26.29 81.099 25.87 80.899 25.37C80.699 24.86 80.599 24.27 80.599 23.6V23.3C80.599 22.67 80.699 22.115 80.899 21.635C81.099 21.145 81.374 20.735 81.724 20.405C82.074 20.065 82.484 19.81 82.954 19.64C83.434 19.47 83.949 19.385 84.499 19.385C85.049 19.385 85.559 19.47 86.029 19.64C86.509 19.81 86.924 20.065 87.274 20.405C87.624 20.735 87.899 21.145 88.099 21.635C88.299 22.115 88.399 22.67 88.399 23.3V23.6C88.399 24.27 88.299 24.86 88.099 25.37C87.899 25.87 87.624 26.29 87.274 26.63C86.924 26.97 86.509 27.23 86.029 27.41C85.559 27.58 85.049 27.665 84.499 27.665ZM84.499 26.225C84.789 26.225 85.064 26.175 85.324 26.075C85.594 25.975 85.829 25.82 86.029 25.61C86.239 25.4 86.404 25.13 86.524 24.8C86.654 24.47 86.719 24.07 86.719 23.6V23.3C86.719 22.87 86.654 22.5 86.524 22.19C86.404 21.88 86.239 21.625 86.029 21.425C85.829 21.225 85.594 21.075 85.324 20.975C85.064 20.875 84.789 20.825 84.499 20.825C84.209 20.825 83.929 20.875 83.659 20.975C83.399 21.075 83.164 21.225 82.954 21.425C82.754 21.625 82.589 21.88 82.459 22.19C82.339 22.5 82.279 22.87 82.279 23.3V23.6C82.279 24.07 82.339 24.47 82.459 24.8C82.589 25.13 82.754 25.4 82.954 25.61C83.164 25.82 83.399 25.975 83.659 26.075C83.929 26.175 84.209 26.225 84.499 26.225ZM90.0432 19.55H96.9432V27.5H95.2932V20.96H91.6932V27.5H90.0432V19.55ZM99.0373 19.55H100.567V20.885C100.807 20.425 101.162 20.06 101.632 19.79C102.112 19.52 102.652 19.385 103.252 19.385C104.292 19.385 105.112 19.71 105.712 20.36C106.312 21.01 106.612 21.99 106.612 23.3V23.6C106.612 24.28 106.532 24.875 106.372 25.385C106.212 25.895 105.982 26.32 105.682 26.66C105.392 26.99 105.042 27.24 104.632 27.41C104.222 27.58 103.762 27.665 103.252 27.665C102.682 27.665 102.162 27.54 101.692 27.29C101.222 27.04 100.887 26.69 100.687 26.24V30.5H99.0373V19.55ZM102.862 26.225C103.482 26.225 103.982 26.01 104.362 25.58C104.742 25.15 104.932 24.49 104.932 23.6V23.3C104.932 22.46 104.747 21.84 104.377 21.44C104.007 21.03 103.502 20.825 102.862 20.825C102.582 20.825 102.312 20.87 102.052 20.96C101.792 21.05 101.557 21.185 101.347 21.365C101.147 21.535 100.987 21.755 100.867 22.025C100.747 22.285 100.687 22.585 100.687 22.925V23.975C100.687 24.355 100.747 24.685 100.867 24.965C100.987 25.245 101.147 25.48 101.347 25.67C101.547 25.86 101.777 26 102.037 26.09C102.297 26.18 102.572 26.225 102.862 26.225ZM111.716 27.665C111.166 27.665 110.651 27.58 110.171 27.41C109.701 27.23 109.291 26.97 108.941 26.63C108.591 26.29 108.316 25.87 108.116 25.37C107.916 24.86 107.816 24.27 107.816 23.6V23.3C107.816 22.67 107.916 22.115 108.116 21.635C108.316 21.145 108.591 20.735 108.941 20.405C109.291 20.065 109.701 19.81 110.171 19.64C110.651 19.47 111.166 19.385 111.716 19.385C112.266 19.385 112.776 19.47 113.246 19.64C113.726 19.81 114.141 20.065 114.491 20.405C114.841 20.735 115.116 21.145 115.316 21.635C115.516 22.115 115.616 22.67 115.616 23.3V23.6C115.616 24.27 115.516 24.86 115.316 25.37C115.116 25.87 114.841 26.29 114.491 26.63C114.141 26.97 113.726 27.23 113.246 27.41C112.776 27.58 112.266 27.665 111.716 27.665ZM111.716 26.225C112.006 26.225 112.281 26.175 112.541 26.075C112.811 25.975 113.046 25.82 113.246 25.61C113.456 25.4 113.621 25.13 113.741 24.8C113.871 24.47 113.936 24.07 113.936 23.6V23.3C113.936 22.87 113.871 22.5 113.741 22.19C113.621 21.88 113.456 21.625 113.246 21.425C113.046 21.225 112.811 21.075 112.541 20.975C112.281 20.875 112.006 20.825 111.716 20.825C111.426 20.825 111.146 20.875 110.876 20.975C110.616 21.075 110.381 21.225 110.171 21.425C109.971 21.625 109.806 21.88 109.676 22.19C109.556 22.5 109.496 22.87 109.496 23.3V23.6C109.496 24.07 109.556 24.47 109.676 24.8C109.806 25.13 109.971 25.4 110.171 25.61C110.381 25.82 110.616 25.975 110.876 26.075C111.146 26.175 111.426 26.225 111.716 26.225ZM120.56 27.665C120.02 27.665 119.52 27.585 119.06 27.425C118.61 27.255 118.215 27 117.875 26.66C117.545 26.32 117.285 25.895 117.095 25.385C116.905 24.875 116.81 24.28 116.81 23.6V23.3C116.81 22.66 116.91 22.095 117.11 21.605C117.31 21.115 117.58 20.705 117.92 20.375C118.27 20.045 118.67 19.8 119.12 19.64C119.58 19.47 120.06 19.385 120.56 19.385C121.08 19.385 121.54 19.455 121.94 19.595C122.35 19.735 122.695 19.93 122.975 20.18C123.265 20.42 123.495 20.705 123.665 21.035C123.835 21.365 123.95 21.72 124.01 22.1H122.33C122.23 21.73 122.05 21.425 121.79 21.185C121.53 20.945 121.12 20.825 120.56 20.825C120.28 20.825 120.015 20.875 119.765 20.975C119.515 21.065 119.295 21.21 119.105 21.41C118.915 21.61 118.765 21.87 118.655 22.19C118.545 22.5 118.49 22.87 118.49 23.3V23.6C118.49 24.07 118.545 24.475 118.655 24.815C118.765 25.145 118.915 25.415 119.105 25.625C119.295 25.835 119.515 25.99 119.765 26.09C120.015 26.18 120.28 26.225 120.56 26.225C121.49 26.225 122.08 25.8 122.33 24.95H124.01C123.93 25.37 123.79 25.75 123.59 26.09C123.4 26.42 123.155 26.705 122.855 26.945C122.555 27.175 122.21 27.355 121.82 27.485C121.43 27.605 121.01 27.665 120.56 27.665Z" fill="#222222"/>
<path d="M19.6 44.62C19.192 44.62 18.804 44.556 18.436 44.428C18.068 44.292 17.744 44.092 17.464 43.828C17.184 43.556 16.96 43.216 16.792 42.808C16.624 42.4 16.54 41.924 16.54 41.38V41.14C16.54 40.628 16.624 40.176 16.792 39.784C16.96 39.392 17.184 39.068 17.464 38.812C17.744 38.548 18.068 38.352 18.436 38.224C18.804 38.088 19.192 38.02 19.6 38.02C20.008 38.02 20.396 38.088 20.764 38.224C21.132 38.352 21.456 38.548 21.736 38.812C22.016 39.068 22.24 39.392 22.408 39.784C22.576 40.176 22.66 40.628 22.66 41.14V41.38C22.66 41.924 22.576 42.4 22.408 42.808C22.24 43.216 22.016 43.556 21.736 43.828C21.456 44.092 21.132 44.292 20.764 44.428C20.396 44.556 20.008 44.62 19.6 44.62ZM19.6 43.66C19.84 43.66 20.08 43.62 20.32 43.54C20.56 43.452 20.772 43.32 20.956 43.144C21.14 42.96 21.288 42.724 21.4 42.436C21.52 42.148 21.58 41.796 21.58 41.38V41.14C21.58 40.756 21.52 40.428 21.4 40.156C21.288 39.884 21.14 39.66 20.956 39.484C20.772 39.308 20.56 39.18 20.32 39.1C20.08 39.02 19.84 38.98 19.6 38.98C19.36 38.98 19.12 39.02 18.88 39.1C18.64 39.18 18.428 39.308 18.244 39.484C18.06 39.66 17.908 39.884 17.788 40.156C17.676 40.428 17.62 40.756 17.62 41.14V41.38C17.62 41.796 17.676 42.148 17.788 42.436C17.908 42.724 18.06 42.96 18.244 43.144C18.428 43.32 18.64 43.452 18.88 43.54C19.12 43.62 19.36 43.66 19.6 43.66ZM24.1553 38.14H25.1393V39.34C25.2113 39.164 25.3113 38.996 25.4393 38.836C25.5673 38.676 25.7193 38.536 25.8953 38.416C26.0793 38.296 26.2873 38.2 26.5193 38.128C26.7593 38.056 27.0233 38.02 27.3113 38.02C28.1113 38.02 28.7033 38.236 29.0873 38.668C29.4793 39.092 29.6753 39.716 29.6753 40.54V44.5H28.6193V40.78C28.6193 40.188 28.4953 39.74 28.2473 39.436C27.9993 39.132 27.5833 38.98 26.9993 38.98C26.6873 38.98 26.4153 39.032 26.1833 39.136C25.9593 39.24 25.7753 39.376 25.6313 39.544C25.4873 39.712 25.3793 39.904 25.3073 40.12C25.2433 40.336 25.2113 40.556 25.2113 40.78V44.5H24.1553V38.14ZM31.0581 40.648H34.6581V41.632H31.0581V40.648ZM38.0167 44.56C37.3527 44.56 36.8767 44.4 36.5887 44.08C36.3007 43.76 36.1567 43.24 36.1567 42.52V36.1H37.2127V42.52C37.2127 42.936 37.2807 43.22 37.4167 43.372C37.5527 43.524 37.7927 43.6 38.1367 43.6C38.2247 43.6 38.3007 43.6 38.3647 43.6C38.4287 43.592 38.4927 43.584 38.5567 43.576V44.512C38.4927 44.528 38.4007 44.54 38.2807 44.548C38.1687 44.556 38.0807 44.56 38.0167 44.56ZM40.0605 38.14H41.1165V44.5H40.0605V38.14ZM40.5885 37.3C40.3805 37.3 40.2085 37.232 40.0725 37.096C39.9365 36.96 39.8685 36.788 39.8685 36.58C39.8685 36.372 39.9365 36.2 40.0725 36.064C40.2085 35.928 40.3805 35.86 40.5885 35.86C40.7965 35.86 40.9685 35.928 41.1045 36.064C41.2405 36.2 41.3085 36.372 41.3085 36.58C41.3085 36.788 41.2405 36.96 41.1045 37.096C40.9685 37.232 40.7965 37.3 40.5885 37.3ZM43.1514 38.14H44.1354V39.34C44.2074 39.164 44.3074 38.996 44.4354 38.836C44.5634 38.676 44.7154 38.536 44.8914 38.416C45.0754 38.296 45.2834 38.2 45.5154 38.128C45.7554 38.056 46.0194 38.02 46.3074 38.02C47.1074 38.02 47.6994 38.236 48.0834 38.668C48.4754 39.092 48.6714 39.716 48.6714 40.54V44.5H47.6154V40.78C47.6154 40.188 47.4914 39.74 47.2434 39.436C46.9954 39.132 46.5794 38.98 45.9954 38.98C45.6834 38.98 45.4114 39.032 45.1794 39.136C44.9554 39.24 44.7714 39.376 44.6274 39.544C44.4834 39.712 44.3754 39.904 44.3034 40.12C44.2394 40.336 44.2074 40.556 44.2074 40.78V44.5H43.1514V38.14ZM53.1742 44.62C52.7662 44.62 52.3782 44.556 52.0102 44.428C51.6422 44.3 51.3182 44.104 51.0382 43.84C50.7582 43.568 50.5342 43.228 50.3662 42.82C50.1982 42.412 50.1142 41.932 50.1142 41.38V41.14C50.1142 40.612 50.1942 40.156 50.3542 39.772C50.5142 39.38 50.7262 39.056 50.9902 38.8C51.2622 38.536 51.5742 38.34 51.9262 38.212C52.2862 38.084 52.6622 38.02 53.0542 38.02C53.9902 38.02 54.7142 38.276 55.2262 38.788C55.7382 39.3 55.9942 40.024 55.9942 40.96V41.632H51.1702C51.1702 42.008 51.2302 42.324 51.3502 42.58C51.4702 42.836 51.6262 43.044 51.8182 43.204C52.0102 43.364 52.2222 43.48 52.4542 43.552C52.6942 43.624 52.9342 43.66 53.1742 43.66C53.6542 43.66 54.0222 43.58 54.2782 43.42C54.5422 43.26 54.7302 43.04 54.8422 42.76H55.8742C55.8102 43.064 55.6942 43.332 55.5262 43.564C55.3662 43.796 55.1662 43.992 54.9262 44.152C54.6942 44.304 54.4262 44.42 54.1222 44.5C53.8262 44.58 53.5102 44.62 53.1742 44.62ZM53.1142 38.98C52.8662 38.98 52.6262 39.016 52.3942 39.088C52.1622 39.152 51.9542 39.26 51.7702 39.412C51.5942 39.556 51.4502 39.74 51.3382 39.964C51.2262 40.188 51.1702 40.456 51.1702 40.768H54.9982C54.9902 40.44 54.9342 40.164 54.8302 39.94C54.7342 39.708 54.6022 39.524 54.4342 39.388C54.2662 39.244 54.0662 39.14 53.8342 39.076C53.6102 39.012 53.3702 38.98 53.1142 38.98Z" fill="#00C680"/>
</svg>
