<svg width="270" height="32" viewBox="0 0 270 32" fill="none" xmlns="http://www.w3.org/2000/svg">
<path d="M103.866 21V12.8182H107.259C108.183 12.8182 108.914 13.0153 109.454 13.4094C109.994 13.8001 110.264 14.331 110.264 15.0021C110.264 15.4815 110.111 15.8615 109.805 16.142C109.5 16.4226 109.095 16.6108 108.591 16.7067C108.957 16.7493 109.292 16.8594 109.598 17.0369C109.903 17.2109 110.148 17.4453 110.333 17.7401C110.521 18.0348 110.615 18.3864 110.615 18.7947C110.615 19.228 110.503 19.6115 110.28 19.9453C110.056 20.2756 109.731 20.5348 109.305 20.723C108.882 20.9077 108.373 21 107.776 21H103.866ZM105.363 19.6683H107.776C108.17 19.6683 108.479 19.5742 108.703 19.386C108.927 19.1978 109.038 18.9421 109.038 18.619C109.038 18.239 108.927 17.9407 108.703 17.7241C108.479 17.5039 108.17 17.3938 107.776 17.3938H105.363V19.6683ZM105.363 16.2273H107.275C107.574 16.2273 107.829 16.1847 108.042 16.0994C108.259 16.0142 108.424 15.8935 108.538 15.7372C108.655 15.5774 108.714 15.3892 108.714 15.1726C108.714 14.8565 108.584 14.6097 108.325 14.4322C108.065 14.2546 107.71 14.1658 107.259 14.1658H105.363V16.2273Z" fill="#A3A3A3"/>
<path d="M94.3049 21.1651C93.5378 21.1651 92.8685 20.9894 92.2967 20.6378C91.725 20.2862 91.2811 19.7944 90.965 19.1623C90.649 18.5302 90.491 17.7916 90.491 16.9464C90.491 16.0977 90.649 15.3555 90.965 14.7198C91.2811 14.0842 91.725 13.5906 92.2967 13.239C92.8685 12.8875 93.5378 12.7117 94.3049 12.7117C95.0719 12.7117 95.7413 12.8875 96.3131 13.239C96.8848 13.5906 97.3287 14.0842 97.6447 14.7198C97.9608 15.3555 98.1188 16.0977 98.1188 16.9464C98.1188 17.7916 97.9608 18.5302 97.6447 19.1623C97.3287 19.7944 96.8848 20.2862 96.3131 20.6378C95.7413 20.9894 95.0719 21.1651 94.3049 21.1651ZM94.3102 19.8281C94.8074 19.8281 95.2193 19.6968 95.546 19.434C95.8727 19.1712 96.1142 18.8214 96.2704 18.3846C96.4302 17.9478 96.5101 17.4666 96.5101 16.9411C96.5101 16.4191 96.4302 15.9397 96.2704 15.5029C96.1142 15.0625 95.8727 14.7092 95.546 14.4428C95.2193 14.1765 94.8074 14.0433 94.3102 14.0433C93.8095 14.0433 93.394 14.1765 93.0638 14.4428C92.7371 14.7092 92.4938 15.0625 92.334 15.5029C92.1778 15.9397 92.0996 16.4191 92.0996 16.9411C92.0996 17.4666 92.1778 17.9478 92.334 18.3846C92.4938 18.8214 92.7371 19.1712 93.0638 19.434C93.394 19.6968 93.8095 19.8281 94.3102 19.8281Z" fill="#A3A3A3"/>
<path d="M87.6144 16.2219V17.6016H83.1826V16.2219H87.6144ZM83.6301 12.8182V21H82.0693V12.8182H83.6301ZM88.7277 12.8182V21H87.1723V12.8182H88.7277Z" fill="#A3A3A3"/>
<path d="M75.9103 21.1811C75.3919 21.1811 74.9231 21.0852 74.5041 20.8935C74.085 20.6982 73.753 20.4159 73.508 20.0465C73.2665 19.6772 73.1458 19.2245 73.1458 18.6882C73.1458 18.2266 73.2345 17.8466 73.4121 17.5483C73.5897 17.25 73.8293 17.0139 74.1312 16.8399C74.433 16.6659 74.7704 16.5345 75.1433 16.4457C75.5161 16.3569 75.8961 16.2894 76.2832 16.2433C76.7732 16.1865 77.171 16.1403 77.4764 16.1048C77.7818 16.0657 78.0037 16.0036 78.1422 15.9183C78.2807 15.8331 78.3499 15.6946 78.3499 15.5029V15.4656C78.3499 15.0004 78.2186 14.6399 77.9558 14.3843C77.6965 14.1286 77.3095 14.0007 76.7945 14.0007C76.2583 14.0007 75.8357 14.1197 75.5268 14.3576C75.2214 14.592 75.0101 14.853 74.8929 15.1406L73.3961 14.7997C73.5737 14.3026 73.8329 13.9013 74.1738 13.5959C74.5183 13.287 74.9142 13.0632 75.3617 12.9247C75.8091 12.7827 76.2796 12.7117 76.7732 12.7117C77.0999 12.7117 77.4462 12.7507 77.812 12.8289C78.1813 12.9034 78.5257 13.0419 78.8453 13.2443C79.1685 13.4468 79.433 13.7362 79.639 14.1126C79.845 14.4855 79.948 14.9702 79.948 15.5668V21H78.3926V19.8814H78.3286C78.2257 20.0874 78.0712 20.2898 77.8652 20.4887C77.6593 20.6875 77.3947 20.8526 77.0715 20.984C76.7484 21.1154 76.3613 21.1811 75.9103 21.1811ZM76.2566 19.9027C76.6969 19.9027 77.0733 19.8157 77.3858 19.6417C77.7019 19.4677 77.9416 19.2404 78.1049 18.9599C78.2718 18.6758 78.3553 18.3722 78.3553 18.049V16.9943C78.2985 17.0512 78.1884 17.1044 78.025 17.1541C77.8652 17.2003 77.6823 17.2411 77.4764 17.2767C77.2704 17.3086 77.0698 17.3388 76.8745 17.3672C76.6791 17.3921 76.5158 17.4134 76.3844 17.4311C76.0754 17.4702 75.7931 17.5359 75.5374 17.6282C75.2853 17.7205 75.0829 17.8537 74.9302 18.0277C74.7811 18.1982 74.7065 18.4254 74.7065 18.7095C74.7065 19.1037 74.8521 19.402 75.1433 19.6044C75.4345 19.8033 75.8056 19.9027 76.2566 19.9027Z" fill="#A3A3A3"/>
<path d="M65.3223 14.1925V12.8182H72.2257V14.1925H69.557V21H68.0016V14.1925H65.3223Z" fill="#A3A3A3"/>
<path d="M60.716 21.1651C59.949 21.1651 59.2796 20.9894 58.7079 20.6378C58.1361 20.2862 57.6922 19.7944 57.3762 19.1623C57.0601 18.5302 56.9021 17.7916 56.9021 16.9464C56.9021 16.0977 57.0601 15.3555 57.3762 14.7198C57.6922 14.0842 58.1361 13.5906 58.7079 13.239C59.2796 12.8875 59.949 12.7117 60.716 12.7117C61.4831 12.7117 62.1525 12.8875 62.7242 13.239C63.2959 13.5906 63.7398 14.0842 64.0559 14.7198C64.3719 15.3555 64.5299 16.0977 64.5299 16.9464C64.5299 17.7916 64.3719 18.5302 64.0559 19.1623C63.7398 19.7944 63.2959 20.2862 62.7242 20.6378C62.1525 20.9894 61.4831 21.1651 60.716 21.1651ZM60.7213 19.8281C61.2185 19.8281 61.6304 19.6968 61.9571 19.434C62.2838 19.1712 62.5253 18.8214 62.6816 18.3846C62.8414 17.9478 62.9213 17.4666 62.9213 16.9411C62.9213 16.4191 62.8414 15.9397 62.6816 15.5029C62.5253 15.0625 62.2838 14.7092 61.9571 14.4428C61.6304 14.1765 61.2185 14.0433 60.7213 14.0433C60.2206 14.0433 59.8052 14.1765 59.4749 14.4428C59.1482 14.7092 58.9049 15.0625 58.7451 15.5029C58.5889 15.9397 58.5108 16.4191 58.5108 16.9411C58.5108 17.4666 58.5889 17.9478 58.7451 18.3846C58.9049 18.8214 59.1482 19.1712 59.4749 19.434C59.8052 19.6968 60.2206 19.8281 60.7213 19.8281Z" fill="#A3A3A3"/>
<path d="M54.617 9.7713L55.2775 10.778C55.0325 11.0018 54.7537 11.1616 54.4412 11.2575C54.1323 11.3498 53.7754 11.4084 53.3706 11.4332C52.9658 11.4545 52.5023 11.4741 51.9803 11.4918C51.3908 11.5096 50.9061 11.6374 50.5261 11.8753C50.1462 12.1097 49.8532 12.4577 49.6472 12.9194C49.4448 13.3775 49.3134 13.9528 49.253 14.6452H49.3542C49.6206 14.1374 49.9899 13.7575 50.4622 13.5053C50.9381 13.2532 51.4725 13.1271 52.0655 13.1271C52.7261 13.1271 53.3138 13.278 53.8287 13.5799C54.3436 13.8817 54.7484 14.3239 55.0432 14.9062C55.3415 15.4851 55.4906 16.1935 55.4906 17.0316C55.4906 17.8803 55.3344 18.6136 55.0219 19.2315C54.7129 19.8494 54.2761 20.3271 53.7115 20.6644C53.1504 20.9982 52.4881 21.1651 51.7246 21.1651C50.9611 21.1651 50.2953 20.9929 49.7271 20.6484C49.1625 20.3004 48.7239 19.7855 48.4114 19.1037C48.1025 18.4219 47.948 17.5803 47.948 16.5788V15.7692C47.948 13.8977 48.2818 12.4897 48.9494 11.5451C49.617 10.6005 50.6149 10.1158 51.943 10.0909C52.3727 10.0803 52.7562 10.0785 53.0936 10.0856C53.431 10.0891 53.7257 10.0731 53.9778 10.0376C54.2335 9.99857 54.4466 9.9098 54.617 9.7713ZM51.73 19.8281C52.1738 19.8281 52.5556 19.7163 52.8752 19.4925C53.1984 19.2653 53.4469 18.9439 53.6209 18.5284C53.7949 18.1129 53.8819 17.6229 53.8819 17.0582C53.8819 16.5043 53.7949 16.0337 53.6209 15.6467C53.4469 15.2596 53.1984 14.9648 52.8752 14.7624C52.552 14.5565 52.165 14.4535 51.714 14.4535C51.3802 14.4535 51.0819 14.5121 50.8191 14.6293C50.5563 14.7429 50.3308 14.9116 50.1426 15.1353C49.9579 15.359 49.8141 15.6325 49.7111 15.9556C49.6117 16.2752 49.5584 16.6428 49.5513 17.0582C49.5513 17.9034 49.7449 18.5763 50.1319 19.0771C50.5226 19.5778 51.0552 19.8281 51.73 19.8281Z" fill="#A3A3A3"/>
<path d="M42.1457 21.1811C41.6272 21.1811 41.1584 21.0852 40.7394 20.8935C40.3204 20.6982 39.9883 20.4159 39.7433 20.0465C39.5018 19.6772 39.3811 19.2245 39.3811 18.6882C39.3811 18.2266 39.4699 17.8466 39.6474 17.5483C39.825 17.25 40.0647 17.0139 40.3665 16.8399C40.6684 16.6659 41.0057 16.5345 41.3786 16.4457C41.7515 16.3569 42.1315 16.2894 42.5185 16.2433C43.0086 16.1865 43.4063 16.1403 43.7117 16.1048C44.0171 16.0657 44.2391 16.0036 44.3776 15.9183C44.516 15.8331 44.5853 15.6946 44.5853 15.5029V15.4656C44.5853 15.0004 44.4539 14.6399 44.1911 14.3843C43.9319 14.1286 43.5448 14.0007 43.0299 14.0007C42.4937 14.0007 42.0711 14.1197 41.7621 14.3576C41.4567 14.592 41.2454 14.853 41.1283 15.1406L39.6315 14.7997C39.809 14.3026 40.0682 13.9013 40.4092 13.5959C40.7536 13.287 41.1496 13.0632 41.597 12.9247C42.0445 12.7827 42.515 12.7117 43.0086 12.7117C43.3353 12.7117 43.6815 12.7507 44.0473 12.8289C44.4166 12.9034 44.7611 13.0419 45.0807 13.2443C45.4038 13.4468 45.6684 13.7362 45.8744 14.1126C46.0803 14.4855 46.1833 14.9702 46.1833 15.5668V21H44.6279V19.8814H44.564C44.461 20.0874 44.3065 20.2898 44.1006 20.4887C43.8946 20.6875 43.63 20.8526 43.3069 20.984C42.9837 21.1154 42.5967 21.1811 42.1457 21.1811ZM42.4919 19.9027C42.9322 19.9027 43.3087 19.8157 43.6212 19.6417C43.9372 19.4677 44.1769 19.2404 44.3403 18.9599C44.5072 18.6758 44.5906 18.3722 44.5906 18.049V16.9943C44.5338 17.0512 44.4237 17.1044 44.2604 17.1541C44.1006 17.2003 43.9177 17.2411 43.7117 17.2767C43.5057 17.3086 43.3051 17.3388 43.1098 17.3672C42.9145 17.3921 42.7511 17.4134 42.6197 17.4311C42.3108 17.4702 42.0285 17.5359 41.7728 17.6282C41.5207 17.7205 41.3182 17.8537 41.1656 18.0277C41.0164 18.1982 40.9418 18.4254 40.9418 18.7095C40.9418 19.1037 41.0874 19.402 41.3786 19.6044C41.6698 19.8033 42.0409 19.9027 42.4919 19.9027Z" fill="#A3A3A3"/>
<path d="M30.5068 24.0682V12.8182H32.0622V14.1446H32.1954C32.2877 13.9741 32.4209 13.777 32.5949 13.5533C32.7689 13.3296 33.0104 13.1343 33.3193 12.9674C33.6283 12.7969 34.0367 12.7117 34.5445 12.7117C35.205 12.7117 35.7945 12.8786 36.3129 13.2124C36.8314 13.5462 37.238 14.0274 37.5328 14.6559C37.8311 15.2845 37.9802 16.0409 37.9802 16.9251C37.9802 17.8093 37.8328 18.5675 37.5381 19.1996C37.2433 19.8281 36.8385 20.3129 36.3236 20.6538C35.8087 20.9911 35.221 21.1598 34.5605 21.1598C34.0633 21.1598 33.6567 21.0764 33.3406 20.9095C33.0281 20.7426 32.7831 20.5473 32.6056 20.3235C32.428 20.0998 32.2913 19.9009 32.1954 19.7269H32.0995V24.0682H30.5068ZM32.0676 16.9091C32.0676 17.4844 32.151 17.9887 32.3179 18.4219C32.4848 18.8551 32.7263 19.1943 33.0423 19.4393C33.3584 19.6808 33.7455 19.8015 34.2036 19.8015C34.6794 19.8015 35.0771 19.6754 35.3968 19.4233C35.7164 19.1676 35.9578 18.8214 36.1212 18.3846C36.2881 17.9478 36.3715 17.456 36.3715 16.9091C36.3715 16.3693 36.2899 15.8846 36.1265 15.4549C35.9667 15.0252 35.7252 14.6861 35.4021 14.4375C35.0825 14.1889 34.683 14.0647 34.2036 14.0647C33.7419 14.0647 33.3513 14.1836 33.0317 14.4215C32.7156 14.6595 32.4759 14.9915 32.3126 15.4176C32.1492 15.8438 32.0676 16.3409 32.0676 16.9091Z" fill="#A3A3A3"/>
<path d="M22.449 18.8374H24.0789C24.1003 19.1712 24.2512 19.4286 24.5317 19.6098C24.8158 19.7909 25.1833 19.8814 25.6343 19.8814C26.0924 19.8814 26.4831 19.7838 26.8062 19.5884C27.1294 19.3896 27.2909 19.0824 27.2909 18.6669C27.2909 18.4183 27.2288 18.2017 27.1045 18.0171C26.9838 17.8289 26.8115 17.6833 26.5878 17.5803C26.3677 17.4773 26.1066 17.4258 25.8048 17.4258H24.4731V16.174H25.8048C26.2558 16.174 26.5932 16.071 26.8169 15.8651C27.0406 15.6591 27.1525 15.4017 27.1525 15.0927C27.1525 14.7589 27.0317 14.4908 26.7902 14.2884C26.5523 14.0824 26.2203 13.9794 25.7941 13.9794C25.3609 13.9794 25.0005 14.0771 24.7128 14.2724C24.4252 14.4642 24.2743 14.7127 24.2601 15.0181H22.6514C22.662 14.56 22.8005 14.1588 23.0669 13.8143C23.3368 13.4663 23.699 13.1964 24.1535 13.0046C24.6116 12.8093 25.1319 12.7117 25.7142 12.7117C26.3215 12.7117 26.8471 12.8093 27.2909 13.0046C27.7348 13.2 28.0775 13.4698 28.319 13.8143C28.564 14.1588 28.6865 14.5547 28.6865 15.0022C28.6865 15.4531 28.5516 15.8225 28.2817 16.1101C28.0154 16.3942 27.6674 16.5984 27.2377 16.7227V16.8079C27.5537 16.8292 27.8343 16.9251 28.0793 17.0955C28.3243 17.266 28.5161 17.4915 28.6546 17.772C28.7931 18.0526 28.8623 18.3704 28.8623 18.7255C28.8623 19.2262 28.7238 19.6595 28.4468 20.0252C28.1734 20.391 27.7934 20.6733 27.3069 20.8722C26.824 21.0675 26.2718 21.1651 25.6503 21.1651C25.0466 21.1651 24.5051 21.071 24.0257 20.8828C23.5498 20.6911 23.1716 20.4212 22.8911 20.0732C22.6141 19.7252 22.4667 19.3132 22.449 18.8374Z" fill="#A3A3A3"/>
<path d="M16.7746 21.1811C16.2561 21.1811 15.7874 21.0852 15.3683 20.8935C14.9493 20.6982 14.6173 20.4159 14.3722 20.0465C14.1307 19.6772 14.01 19.2245 14.01 18.6882C14.01 18.2266 14.0988 17.8466 14.2763 17.5483C14.4539 17.25 14.6936 17.0139 14.9955 16.8399C15.2973 16.6659 15.6347 16.5345 16.0075 16.4457C16.3804 16.3569 16.7604 16.2894 17.1474 16.2433C17.6375 16.1865 18.0352 16.1403 18.3406 16.1048C18.646 16.0657 18.868 16.0036 19.0065 15.9183C19.145 15.8331 19.2142 15.6946 19.2142 15.5029V15.4656C19.2142 15.0004 19.0828 14.6399 18.82 14.3843C18.5608 14.1286 18.1737 14.0007 17.6588 14.0007C17.1226 14.0007 16.7 14.1197 16.391 14.3576C16.0856 14.592 15.8744 14.853 15.7572 15.1406L14.2604 14.7997C14.4379 14.3026 14.6972 13.9013 15.0381 13.5959C15.3825 13.287 15.7785 13.0632 16.2259 12.9247C16.6734 12.7827 17.1439 12.7117 17.6375 12.7117C17.9642 12.7117 18.3104 12.7507 18.6762 12.8289C19.0455 12.9034 19.39 13.0419 19.7096 13.2443C20.0327 13.4468 20.2973 13.7362 20.5033 14.1126C20.7092 14.4855 20.8122 14.9702 20.8122 15.5668V21H19.2568V19.8814H19.1929C19.0899 20.0874 18.9354 20.2898 18.7295 20.4887C18.5235 20.6875 18.2589 20.8526 17.9358 20.984C17.6126 21.1154 17.2256 21.1811 16.7746 21.1811ZM17.1208 19.9027C17.5611 19.9027 17.9376 19.8157 18.2501 19.6417C18.5661 19.4677 18.8058 19.2404 18.9692 18.9599C19.1361 18.6758 19.2195 18.3722 19.2195 18.049V16.9943C19.1627 17.0512 19.0526 17.1044 18.8893 17.1541C18.7295 17.2003 18.5466 17.2411 18.3406 17.2767C18.1347 17.3086 17.934 17.3388 17.7387 17.3672C17.5434 17.3921 17.38 17.4134 17.2486 17.4311C16.9397 17.4702 16.6574 17.5359 16.4017 17.6282C16.1496 17.7205 15.9472 17.8537 15.7945 18.0277C15.6453 18.1982 15.5707 18.4254 15.5707 18.7095C15.5707 19.1037 15.7163 19.402 16.0075 19.6044C16.2987 19.8033 16.6698 19.9027 17.1208 19.9027Z" fill="#A3A3A3"/>
<path d="M5 21V10.0909H8.88849C9.73722 10.0909 10.4403 10.2454 10.9979 10.5543C11.5554 10.8633 11.9727 11.2858 12.2496 11.8221C12.5266 12.3547 12.6651 12.9549 12.6651 13.6225C12.6651 14.2937 12.5249 14.8973 12.2443 15.4336C11.9673 15.9662 11.5483 16.3888 10.9872 16.7013C10.4297 17.0103 9.72834 17.1647 8.88317 17.1647H6.20916V15.7691H8.73402C9.27024 15.7691 9.70526 15.6768 10.0391 15.4922C10.3729 15.3039 10.6179 15.0483 10.7741 14.7251C10.9304 14.402 11.0085 14.0344 11.0085 13.6225C11.0085 13.2106 10.9304 12.8448 10.7741 12.5252C10.6179 12.2056 10.3711 11.9552 10.0337 11.7741C9.69993 11.593 9.25959 11.5025 8.71271 11.5025H6.64595V21H5Z" fill="#A3A3A3"/>
<path d="M266.337 12.99L264.739 20.521C264.535 21.473 264.195 22 263.039 22H259.877C258.211 22 257.208 21.252 257.208 19.841C257.208 19.603 257.242 19.348 257.293 19.076L258.585 12.99H260.013L258.772 18.821C258.721 19.093 258.687 19.331 258.687 19.552C258.687 20.351 259.078 20.844 260.149 20.844H262.716C263.056 20.844 263.26 20.725 263.362 20.266L264.909 12.99H266.337Z" fill="#A3A3A3"/>
<path d="M251.517 22L252.741 16.237C253.217 14.01 254.356 12.99 256.753 12.99H257.739L257.501 14.146H256.77C255.206 14.146 254.458 14.945 254.101 16.594L252.945 22H251.517Z" fill="#A3A3A3"/>
<path d="M250.12 22H248.573L248.964 20.164H250.511L250.12 22Z" fill="#A3A3A3"/>
<path d="M240.228 22L239.616 24.89H238.205L240.415 14.401C240.636 13.381 241.146 12.99 242.2 12.99H244.733C246.977 12.99 247.844 14.095 247.844 15.897C247.844 16.424 247.776 17.002 247.64 17.631C247.045 20.436 246.042 22 242.982 22H240.228ZM241.792 14.673L240.483 20.844H242.982C245.141 20.844 245.736 19.416 246.144 17.461C246.28 16.866 246.348 16.305 246.348 15.846C246.348 14.792 245.906 14.146 244.41 14.146H242.438C242.098 14.146 241.877 14.265 241.792 14.673Z" fill="#A3A3A3"/>
<path d="M239.044 12.99L237.446 20.521C237.242 21.473 236.902 22 235.746 22H232.584C230.918 22 229.915 21.252 229.915 19.841C229.915 19.603 229.949 19.348 230 19.076L231.292 12.99H232.72L231.479 18.821C231.428 19.093 231.394 19.331 231.394 19.552C231.394 20.351 231.785 20.844 232.856 20.844H235.423C235.763 20.844 235.967 20.725 236.069 20.266L237.616 12.99H239.044Z" fill="#A3A3A3"/>
<path d="M225.097 12.888C227.749 12.888 229.109 13.789 229.109 15.999C229.109 16.475 229.058 17.019 228.922 17.631C228.191 21.048 226.712 22.102 223.482 22.102C220.83 22.102 219.487 21.167 219.487 18.94C219.487 18.447 219.538 17.903 219.674 17.291C220.405 13.891 221.867 12.888 225.097 12.888ZM221.17 17.461C221.051 18.022 220.983 18.498 220.983 18.906C220.983 20.368 221.782 20.946 223.567 20.946C225.862 20.946 226.882 20.011 227.426 17.461C227.545 16.9 227.613 16.424 227.613 16.016C227.613 14.571 226.814 14.044 225.029 14.044C222.734 14.044 221.714 14.911 221.17 17.461Z" fill="#A3A3A3"/>
<path d="M213.881 22L215.105 16.237C215.581 14.01 216.72 12.99 219.117 12.99H220.103L219.865 14.146H219.134C217.57 14.146 216.822 14.945 216.465 16.594L215.309 22H213.881Z" fill="#A3A3A3"/>
<path d="M210.743 22H207.989C205.694 22 204.827 20.946 204.827 19.144C204.827 18.6 204.912 17.988 205.048 17.325C205.643 14.52 206.595 12.99 209.74 12.99H211.831C213.072 12.99 213.837 13.279 213.837 14.146C213.837 14.265 213.82 14.401 213.786 14.554L212.375 21.133C211.814 23.768 210.845 24.924 207.853 24.924H204.096L204.334 23.768H208.091C209.298 23.768 210.352 23.258 210.743 22ZM211.015 20.844L212.307 14.758C212.324 14.69 212.324 14.622 212.324 14.554C212.324 14.282 212.171 14.146 211.797 14.146H209.774C207.615 14.146 206.986 15.37 206.544 17.495C206.408 18.141 206.323 18.702 206.323 19.161C206.323 20.266 206.816 20.844 208.346 20.844H211.015Z" fill="#A3A3A3"/>
<path d="M196.384 12.99H201.943C203.456 12.99 204.187 13.925 204.187 15.149C204.187 15.37 204.17 15.574 204.119 15.846L203.184 20.3C202.946 21.405 202.385 22 201.11 22H196.401C195.075 22 194.344 21.133 194.344 19.79C194.344 19.501 194.378 19.11 194.429 18.77C194.718 17.053 195.653 16.373 197.268 16.373H201.365L201.45 15.982C201.467 15.863 201.484 15.778 201.484 15.676C201.484 15.166 201.144 14.894 200.532 14.894H195.976L196.384 12.99ZM200.974 18.209H198.135C197.625 18.209 197.319 18.345 197.149 18.957C197.098 19.144 197.064 19.399 197.064 19.535C197.064 19.926 197.268 20.164 197.693 20.164H199.954C200.379 20.164 200.583 19.994 200.685 19.569L200.974 18.209Z" fill="#A3A3A3"/>
<path d="M189.234 12.99H192.889C193.824 12.99 194.283 13.534 194.283 14.265C194.283 14.401 194.266 14.537 194.232 14.69L192.838 21.235C192.243 24.006 191.019 25.009 188.129 25.009H183.607L184.015 23.139H188.078C188.945 23.139 189.676 22.884 190.033 22H187.5C185.188 22 184.423 20.657 184.423 18.719C184.423 18.226 184.474 17.699 184.593 17.155C185.171 14.435 186.174 12.99 189.234 12.99ZM190.441 20.045L191.393 15.625C191.41 15.523 191.427 15.438 191.427 15.353C191.427 15.047 191.257 14.945 190.849 14.945H189.608C188.01 14.945 187.602 16.101 187.296 17.495C187.211 17.92 187.143 18.328 187.143 18.702C187.143 19.467 187.432 20.045 188.486 20.045H190.441Z" fill="#A3A3A3"/>
<path d="M182.405 22H177.305C175.129 22 174.194 21.116 174.194 19.246C174.194 18.634 174.313 17.767 174.5 16.951C175.316 13.364 176.387 12.888 179.889 12.888C182.422 12.888 184.037 13.483 184.037 15.608C184.037 15.965 183.969 16.39 183.867 16.849C183.646 17.869 183.17 18.379 182.065 18.379H176.982C176.931 18.617 176.914 18.838 176.914 19.025C176.914 19.722 177.288 20.096 178.427 20.096H182.813L182.405 22ZM177.373 16.543H180.671C181.147 16.543 181.232 16.22 181.283 15.999C181.3 15.914 181.317 15.829 181.317 15.761C181.317 15.03 180.416 14.792 179.651 14.792C178.274 14.792 177.662 15.217 177.373 16.543Z" fill="#A3A3A3"/>
<path d="M170.314 13.789L166.421 20.623C165.894 21.541 165.452 22.136 164.109 22.136C162.749 22.136 162.562 21.541 162.426 20.623L161.44 13.789C161.406 13.585 161.372 13.381 161.27 13.381C161.1 13.381 161.032 13.67 161.015 13.755L159.349 22H156.289L158.465 11.8C158.805 10.202 160.233 9.96399 161.134 9.96399C162.324 9.96399 163.191 10.355 163.395 11.715L164.415 18.583C164.449 18.804 164.517 19.076 164.653 19.076C164.789 19.076 164.942 18.804 165.061 18.583L168.954 11.715C169.719 10.372 170.79 9.96399 171.963 9.96399C173.595 9.96399 174.19 10.593 174.19 11.341C174.19 11.494 174.173 11.647 174.139 11.8L171.963 22H168.903L170.756 13.755C170.773 13.687 170.773 13.636 170.773 13.585C170.773 13.449 170.722 13.381 170.654 13.381C170.569 13.381 170.45 13.551 170.314 13.789Z" fill="#A3A3A3"/>
<path fill-rule="evenodd" clip-rule="evenodd" d="M131.595 0.132734C129.418 -0.447669 127.203 0.932719 126.751 3.15392L125.5 9H135.616H135.782H137.243C138.5 9 139.7 9.30821 139.828 10.8823L140.556 17.6805C140.697 19.0069 141.053 19.0521 141.774 17.6805C142.496 16.309 145.229 10.8812 145.229 10.8812C145.83 9.82634 146.593 9.26359 147.445 9.00539L147.597 8.25727C148.019 6.21245 146.777 4.19219 144.761 3.64715L131.595 0.133838V0.132734ZM122.547 23.7427L122.75 23H131.294H134.757L136.525 14.0039C136.631 13.4202 137.003 13.4025 137.099 14.0039L137.922 21.3968C138.08 22.476 138.526 23.1723 140.121 23.1723C140.192 23.1723 140.47 23.1712 140.536 23.1678C141.953 23.1094 142.452 22.4263 143.042 21.3979L146.087 15.6524L143.395 28.8461C142.94 31.0673 140.727 32.4477 138.55 31.8673L125.383 28.3529C123.367 27.8078 122.124 25.7875 122.547 23.7427ZM133.068 10H125.38L125.18 11H132.613H132.624C132.714 10.5768 132.87 10.2748 133.068 10ZM124.95 11.9969L124.76 13H132.155L132.384 11.9969H124.95ZM131.927 14H124.56L124.35 15H131.699L131.927 14ZM124.16 16L123.95 17H131.24L131.47 16H124.16ZM123.71 18H131.11L130.672 20H123.28L123.71 18Z" fill="#1CA345"/>
</svg>
