<svg xmlns="http://www.w3.org/2000/svg" width="52" height="64" viewBox="0 0 52 64">
  <defs>
    <style>
      .cls-1 {
        fill: #fff;
        fill-rule: evenodd;
      }
    </style>
  </defs>
  <path id="_207.svg" data-name="207.svg" class="cls-1" d="M2085,458h-2.36a23.958,23.958,0,0,1-5.64,11.823V486h-2V471.839a24.05,24.05,0,0,1-4,2.923V486h-2V475.8a23.681,23.681,0,0,1-20-.022V486h-2V474.731a24.059,24.059,0,0,1-4-2.894V486h-2V469.821a23.859,23.859,0,0,1,0-31.642V422h2v14.162a24.111,24.111,0,0,1,4-2.893V422h2v10.226a23.681,23.681,0,0,1,20-.022V422h2v11.238a24.1,24.1,0,0,1,4,2.922V422h2v16.177A23.958,23.958,0,0,1,2082.64,450H2085a2,2,0,0,1,2,2v4A2,2,0,0,1,2085,458Zm-9.95-19H2075v-0.053a21.9,21.9,0,0,0-32,0V439h-0.05a21.883,21.883,0,0,0,0,30H2043v0.053a21.9,21.9,0,0,0,32,0V469h0.05A21.883,21.883,0,0,0,2075.05,439Zm9.95,13h-2.1c0.05,0.661.1,1.325,0.1,2s-0.05,1.339-.1,2h2.1v-4Zm-6,3h-2v-2h2v2Zm-10-1a10,10,0,1,1-17.74-6.324l-2.97-2.969,1.42-1.414,2.97,2.969a9.96,9.96,0,0,1,12.64,0l5.97-5.969,1.42,1.414-5.97,5.969A9.959,9.959,0,0,1,2069,454Zm-10-8a7.959,7.959,0,0,0-4.9,1.688l2.88,2.879a3.882,3.882,0,0,1,4.04,0l2.88-2.879A7.959,7.959,0,0,0,2059,446Zm-2,8a2,2,0,1,0,2-2A2,2,0,0,0,2057,454Zm8.31-4.9-2.88,2.879a4,4,0,1,1-6.86,0l-2.88-2.879A7.916,7.916,0,0,0,2051,454a8,8,0,0,0,16,0A7.916,7.916,0,0,0,2065.31,449.1ZM2058,434h2v2h-2v-2Zm2,40h-2v-2h2v2Zm-21-21h2v2h-2v-2Zm19-27h2v2h-2v-2Zm0-4h2v2h-2v-2Zm2,60h-2v-2h2v2Zm0,4h-2v-2h2v2Z" transform="translate(-2035 -422)"/>
</svg>

