<svg xmlns="http://www.w3.org/2000/svg" width="64" height="64" viewBox="0 0 64 64">
  <defs>
    <style>
      .cls-1 {
        fill: #fff;
        fill-rule: evenodd;
      }
    </style>
  </defs>
  <path id="_206.svg" data-name="206.svg" class="cls-1" d="M2339.71,452.707l-7,7a5.267,5.267,0,0,0-1.71,3.3V464a2,2,0,0,1,2,2v6h-2v-6h-13v6h-2v-6a2,2,0,0,1,2-2v-7a8.824,8.824,0,0,1,2.29-5.707L2330.59,441H2332a4,4,0,0,1,4,4v1.414l-7.29,7.293-1.42-1.414,6.71-6.707V445a2,2,0,0,0-2-2h-0.59l-9.7,9.707A6.756,6.756,0,0,0,2320,457v7h9v-1a7.221,7.221,0,0,1,2.29-4.707l7-7a5.268,5.268,0,0,0,1.71-3.3V432a2,2,0,0,0-4,0v8h-2v-8a4,4,0,0,1,8,0v16A7.223,7.223,0,0,1,2339.71,452.707ZM2310,448a20,20,0,1,1,20-20A20.021,20.021,0,0,1,2310,448Zm0-38a18,18,0,1,0,18,18A18.017,18.017,0,0,0,2310,410Zm0,33a15,15,0,1,1,15-15A15.018,15.018,0,0,1,2310,443Zm0-28a13,13,0,1,0,13,13A13.014,13.014,0,0,0,2310,415Zm8,12h2v2h-2v-2Zm-18,0h2v2h-2v-2Zm2,30v7a2,2,0,0,1,2,2v6h-2v-6h-13v6h-2v-6a2,2,0,0,1,2-2v-1a5.276,5.276,0,0,0-1.71-3.293l-7-7A7.223,7.223,0,0,1,2278,448V432a4,4,0,0,1,8,0v8h-2v-8a2,2,0,0,0-4,0v16a5.278,5.278,0,0,0,1.71,3.293l7,7A7.221,7.221,0,0,1,2291,463v1h9v-7a6.864,6.864,0,0,0-1.71-4.293l-9.7-9.707H2288a2,2,0,0,0-2,2v0.586l6.71,6.707-1.42,1.414-7.29-7.293V445a4,4,0,0,1,4-4h1.41l10.3,10.293A8.824,8.824,0,0,1,2302,457Z" transform="translate(-2278 -408)"/>
</svg>

