<svg xmlns="http://www.w3.org/2000/svg" width="48" height="64" viewBox="0 0 48 64">
  <defs>
    <style>
      .cls-1 {
        fill: #fff;
        fill-rule: evenodd;
      }
    </style>
  </defs>
  <path id="_68.svg" data-name="68.svg" class="cls-1" d="M1945,149h-46a1,1,0,0,1-1-1V120h2v27h44V120h2v28A1,1,0,0,1,1945,149Zm-26-14v2h-2v-2h2Zm4,0v2h-2v-2h2Zm4,0v2h-2v-2h2Zm13-15v22a1,1,0,0,1-1,1h-34a1,1,0,0,1-1-1V120h2v21h32V120h2Zm5-2h-6a1,1,0,0,1-1-1v-2h-4v13a1,1,0,0,1-1,1h-6v2a1,1,0,0,1-1,1h-8a1,1,0,0,1-1-1v-2h-6a1,1,0,0,1-1-1V115h-4.14a4,4,0,1,1,0-2h11.73l3.7-3.707a1.006,1.006,0,0,1,1.42,0l3.7,3.707H1938v-2a1,1,0,0,1,1-1h6a1,1,0,0,1,1,1v6A1,1,0,0,1,1945,118Zm-43-6a2,2,0,1,0,2,2A2,2,0,0,0,1902,112Zm17,18h6v-4h-6v4Zm3-18.586L1919.41,114l2.59,2.586,2.59-2.586ZM1932,115h-5.59l-3.7,3.707a1.007,1.007,0,0,1-1.42,0l-3.7-3.707H1912v12h5v-2a1,1,0,0,1,1-1h8a1,1,0,0,1,1,1v2h5V115Zm12-3h-4v4h4v-4Zm-4-18v14h-2V95h-2V93h3A1,1,0,0,1,1940,94Zm-30,6h8v2h-8v-2Zm0,4h14v2h-14v-2Zm24,2h-8v-2h8v2Zm-14-6h14v2h-14v-2Zm-16,8V94a1,1,0,0,1,1-1h3v2h-2v13h-2Zm40-17h-10v5a1,1,0,0,1-1,1h-22a1,1,0,0,1-1-1V91h-10v17h-2V90a1,1,0,0,1,1-1h11V86a1,1,0,0,1,1-1h22a1,1,0,0,1,1,1v3h11a1,1,0,0,1,1,1v18h-2V91Zm-12-4h-20v8h20V87Zm-16,4h12V89h2v3a1,1,0,0,1-1,1h-14a1,1,0,0,1-1-1V89h2v2Z" transform="translate(-1898 -85)"/>
</svg>

